#!OML:ASF H:\LiuWeirdWalks\Patient Classification 1\Patient 1\Session 1\male.ASF
:FULLY-SPECIFIED
:DEGREES
292
root 0.746755 16.9128 -18.1061 6.3456 4.25438 5.94801
lowerback 6.76821 -1.26513 -7.73314
upperback -1.12647 -2.23403 2.42755
thorax -4.59995 -0.866896 7.15697
lowerneck -23.2278 2.62369 7.96647
upperneck 12.2287 2.40526 -7.68524
head 7.7376 0.752515 -3.55838
rclavicle -1.5704e-014 -5.56597e-015
rhumerus -30.386 -0.53811 -80.2615
rradius 35.1446
rwrist -8.80979
rhand -16.6973 -0.673804
rfingers 7.12502
rthumb 9.52746 -30.4384
lclavicle -1.5704e-014 -5.56597e-015
lhumerus -31.4903 -2.13887 88.7606
lradius 32.8048
lwrist 7.46552
lhand -15.8348 -4.50753
lfingers 7.12502
lthumb 10.3595 25.2173
rfemur -45.7595 -2.17175 12.831
rtibia 54.2658
rfoot -5.68879 -16.8666
rtoes -4.36518
lfemur 18.2099 -4.29476 -25.936
ltibia 10.2407
lfoot -12.3287 15.0015
ltoes -24.0039
293
root 0.726277 16.937 -17.9089 6.32523 4.25646 5.73945
lowerback 6.78283 -1.34398 -7.40431
upperback -1.27557 -2.31258 2.50102
thorax -4.75993 -0.901341 7.05951
lowerneck -23.2829 2.78528 8.15681
upperneck 12.1434 2.57164 -7.77598
head 7.73602 0.830624 -3.59722
rclavicle -1.10325e-014 3.18055e-015
rhumerus -30.6803 -0.513272 -80.3328
rradius 34.983
rwrist -9.05733
rhand -17.1462 -0.877505
rfingers 7.12502
rthumb 9.09431 -30.6614
lclavicle -1.10325e-014 3.18055e-015
lhumerus -32.2193 -1.86347 88.8208
lradius 32.966
lwrist 7.20051
lhand -15.6465 -4.60238
lfingers 7.12502
lthumb 10.5411 25.1133
rfemur -45.1531 -2.34878 13.2909
rtibia 54.4613
rfoot -6.07629 -16.9616
rtoes -4.89896
lfemur 18.6501 -4.30073 -25.5381
ltibia 10.4888
lfoot -11.1661 14.282
ltoes -25.2383
294
root 0.705643 16.9789 -17.7097 6.31684 4.28458 5.49751
lowerback 6.75602 -1.43269 -7.04655
upperback -1.42707 -2.39774 2.58336
thorax -4.89907 -0.941449 6.95406
lowerneck -23.3437 2.94751 8.34999
upperneck 12.0572 2.73596 -7.86013
head 7.73525 0.908357 -3.63446
rclavicle -5.06901e-015 -1.27222e-014
rhumerus -31.0126 -0.39189 -80.4374
rradius 34.8096
rwrist -9.4061
rhand -17.6932 -1.15038
rfingers 7.12502
rthumb 8.56644 -30.9566
lclavicle -5.06901e-015 -1.27222e-014
lhumerus -32.9571 -1.56541 88.8817
lradius 33.0393
lwrist 6.96287
lhand -15.5384 -4.70541
lfingers 7.12502
lthumb 10.6455 25.0049
rfemur -44.3351 -2.56758 13.7789
rtibia 54.3431
rfoot -6.54323 -16.984
rtoes -5.57278
lfemur 18.8751 -4.26273 -25.0611
ltibia 11.009
lfoot -9.80439 13.3871
ltoes -26.5171
295
root 0.685243 17.04 -17.5091 6.33163 4.3376 5.23806
lowerback 6.6718 -1.52486 -6.67264
upperback -1.57159 -2.48171 2.66824
thorax -4.99956 -0.984164 6.8392
lowerneck -23.4343 3.10738 8.52092
upperneck 11.9489 2.89512 -7.91618
head 7.73105 0.984663 -3.65879
rclavicle -2.33572e-014 8.74653e-015
rhumerus -31.3636 -0.197312 -80.5672
rradius 34.6215
rwrist -9.84213
rhand -18.3134 -1.52505
rfingers 7.12502
rthumb 7.96788 -31.3549
lclavicle -2.33572e-014 8.74653e-015
lhumerus -33.6349 -1.29076 88.9625
lradius 32.9638
lwrist 6.76263
lhand -15.5744 -4.82314
lfingers 7.12502
lthumb 10.6107 24.889
rfemur -43.3279 -2.82088 14.2656
rtibia 53.8995
rfoot -6.96 -16.9157
rtoes -6.1999
lfemur 18.8808 -4.19965 -24.5276
ltibia 11.7527
lfoot -8.17861 12.3133
ltoes -27.8427
296
root 0.66488 17.1208 -17.3075 6.37341 4.44555 4.9805
lowerback 6.5265 -1.62766 -6.31087
upperback -1.7098 -2.57706 2.75847
thorax -5.05686 -1.03485 6.73489
lowerneck -23.5339 3.25471 8.66428
upperneck 11.8301 3.03982 -7.94695
head 7.72284 1.05499 -3.67168
rclavicle -4.87022e-015 2.62396e-014
rhumerus -31.7363 0.0656025 -80.7094
rradius 34.427
rwrist -10.3183
rhand -18.9462 -1.98545
rfingers 7.12502
rthumb 7.35708 -31.8375
lclavicle -4.87022e-015 2.62396e-014
lhumerus -34.2329 -1.04691 89.0747
lradius 32.7216
lwrist 6.61606
lhand -15.7002 -4.92929
lfingers 7.12502
lthumb 10.4893 24.789
rfemur -42.1516 -3.1298 14.7312
rtibia 53.137
rfoot -7.25206 -16.7534
rtoes -6.81255
lfemur 18.6795 -4.1268 -23.9473
ltibia 12.6548
lfoot -6.23126 11.0359
ltoes -29.1842
297
root 0.644621 17.2204 -17.1061 6.45113 4.62088 4.74915
lowerback 6.30659 -1.73717 -5.98271
upperback -1.83491 -2.6807 2.84881
thorax -5.05598 -1.09196 6.64625
lowerneck -23.6617 3.38682 8.81837
upperneck 11.6704 3.16014 -8.00359
head 7.70432 1.11086 -3.69796
rclavicle -2.26615e-014 7.15625e-015
rhumerus -32.1045 0.332141 -80.8341
rradius 34.1996
rwrist -10.7496
rhand -19.5475 -2.47543
rfingers 7.12502
rthumb 6.77667 -32.347
lclavicle -2.26615e-014 7.15625e-015
lhumerus -34.7071 -0.870384 89.2377
lradius 32.2862
lwrist 6.49664
lhand -15.912 -4.99315
lfingers 7.12502
lthumb 10.285 24.7354
rfemur -40.8491 -3.50032 15.1511
rtibia 52.083
rfoot -7.363 -16.518
rtoes -7.42773
lfemur 18.2844 -4.09128 -23.3576
ltibia 13.6319
lfoot -3.8964 9.57638
ltoes -30.3587
